<?xml version="1.0" standalone="no"?>
<!DOCTYPE svg PUBLIC "-//W3C//DTD SVG 20010904//EN"
 "http://www.w3.org/TR/2001/REC-SVG-20010904/DTD/svg10.dtd">
<svg version="1.0" xmlns="http://www.w3.org/2000/svg"
 width="260.000000pt" height="260.000000pt" viewBox="0 0 260.000000 260.000000"
 preserveAspectRatio="xMidYMid meet">
<metadata>
Created by potrace 1.11, written by Peter Selinger 2001-2013
</metadata>
<g transform="translate(0.000000,260.000000) scale(0.100000,-0.100000)"
fill="#000000" stroke="none">
<path d="M300 1300 l0 -720 65 0 65 0 0 579 c0 344 4 582 9 586 5 3 177 -258
382 -580 365 -574 373 -585 404 -585 31 0 38 10 396 585 200 321 367 584 372
585 4 0 7 -263 7 -585 l0 -585 150 0 150 0 0 720 0 720 -152 0 -153 -1 -340
-549 c-187 -303 -343 -550 -346 -550 -3 0 -162 248 -353 550 l-348 550 -154 0
-154 0 0 -720z"/>
</g>
</svg>
